<?xml version="1.0" standalone="no"?>
<!DOCTYPE svg PUBLIC "-//W3C//DTD SVG 20010904//EN"
 "http://www.w3.org/TR/2001/REC-SVG-20010904/DTD/svg10.dtd">
<svg version="1.0" xmlns="http://www.w3.org/2000/svg"
 width="700.000000pt" height="700.000000pt" viewBox="0 0 700.000000 700.000000"
 preserveAspectRatio="xMidYMid meet">
<metadata>
Created by potrace 1.11, written by Peter Selinger 2001-2013
</metadata>
<g transform="translate(0.000000,700.000000) scale(0.100000,-0.100000)"
fill="#000000" stroke="none">
<path d="M3215 6989 c-1004 -86 -1899 -579 -2513 -1387 -373 -489 -613 -1100
-684 -1737 -17 -152 -16 -584 0 -730 65 -552 238 -1049 523 -1502 334 -531
829 -980 1384 -1256 387 -192 742 -300 1170 -354 169 -21 615 -24 770 -5 449
55 841 170 1203 354 343 174 600 358 881 633 584 570 934 1291 1033 2130 16
139 16 595 0 730 -108 889 -477 1619 -1122 2217 -507 471 -1171 785 -1865 882
-249 35 -546 45 -780 25z m665 -1008 c448 -72 823 -233 1180 -510 127 -98 344
-320 446 -456 307 -411 478 -880 502 -1378 13 -269 -11 -519 -73 -763 -46
-180 -92 -300 -185 -489 -130 -263 -274 -462 -484 -670 -660 -653 -1635 -887
-2521 -605 -953 304 -1638 1150 -1735 2143 -16 158 -8 480 15 627 125 802 625
1491 1349 1859 279 143 600 233 936 265 109 10 448 -4 570 -23z"/>
<path d="M3266 5439 c-491 -63 -939 -307 -1254 -684 -439 -523 -572 -1226
-356 -1874 265 -795 1010 -1331 1849 -1331 1239 0 2162 1137 1910 2354 -122
589 -516 1090 -1066 1356 -196 94 -394 152 -619 180 -99 12 -365 11 -464 -1z"/>
</g>
</svg>
